<svg id="ic_posts" xmlns="http://www.w3.org/2000/svg" width="15.053" height="18.204" viewBox="0 0 15.053 18.204">
  <rect id="Rectangle_1899" data-name="Rectangle 1899" width="2" height="18" rx="1" transform="translate(0.053 0.204)" fill="#707070"/>
  <path id="Rectangle_1899_-_Outline" data-name="Rectangle 1899 - Outline" d="M.941.941V17.248h.627V.941H.941M.627,0H1.882a.627.627,0,0,1,.627.627V17.562a.627.627,0,0,1-.627.627H.627A.627.627,0,0,1,0,17.562V.627A.627.627,0,0,1,.627,0Z" fill="#707070"/>
  <path id="Path_1079" data-name="Path 1079" d="M.627,0H10.662a.627.627,0,0,1,.627.627v4.39a.627.627,0,0,1-.627.627H.627A.627.627,0,0,1,0,5.018V.627A.627.627,0,0,1,.627,0Z" transform="translate(3.763)" fill="#707070"/>
  <path id="Path_1079_-_Outline" data-name="Path 1079 - Outline" d="M.941.941V4.7h9.408V.941H.941M.627,0H10.662a.627.627,0,0,1,.627.627v4.39a.627.627,0,0,1-.627.627H.627A.627.627,0,0,1,0,5.018V.627A.627.627,0,0,1,.627,0Z" transform="translate(3.763)" fill="#707070"/>
  <rect id="Rectangle_1901" data-name="Rectangle 1901" width="11" height="6" rx="1" transform="translate(4.053 6.204)" fill="#707070"/>
  <path id="Rectangle_1901_-_Outline" data-name="Rectangle 1901 - Outline" d="M.941.941V4.7h9.408V.941H.941M.627,0H10.662a.627.627,0,0,1,.627.627v4.39a.627.627,0,0,1-.627.627H.627A.627.627,0,0,1,0,5.018V.627A.627.627,0,0,1,.627,0Z" transform="translate(3.763 6.272)" fill="#707070"/>
  <path id="Path_1080" data-name="Path 1080" d="M.627,0H10.662a.627.627,0,0,1,.627.627v4.39a.627.627,0,0,1-.627.627H.627A.627.627,0,0,1,0,5.018V.627A.627.627,0,0,1,.627,0Z" transform="translate(3.763 12.544)" fill="#707070"/>
  <path id="Path_1080_-_Outline" data-name="Path 1080 - Outline" d="M.941.941V4.7h9.408V.941H.941M.627,0H10.662a.627.627,0,0,1,.627.627v4.39a.627.627,0,0,1-.627.627H.627A.627.627,0,0,1,0,5.018V.627A.627.627,0,0,1,.627,0Z" transform="translate(3.763 12.544)" fill="#707070"/>
</svg>
