<svg xmlns="http://www.w3.org/2000/svg" width="23.601" height="26.059" viewBox="0 0 23.601 26.059">
  <g id="attachment-svgrepo-com" transform="translate(-13.208)">
    <path id="Path_1075" data-name="Path 1075" d="M25.92,23.926a7.507,7.507,0,0,1-10.524-.04,7.38,7.38,0,0,1-.039-10.45l0,0L25.921,2.942,27.243,1.63a5.632,5.632,0,0,1,7.925,0,5.538,5.538,0,0,1,0,7.87L23.519,20.947l0,0a3.7,3.7,0,0,1-5.142-.037,3.588,3.588,0,0,1-.037-5.079l0,0,1.3-1.28,6.485-6.406,1.3,1.282L19.63,17.1a1.8,1.8,0,0,0,0,2.562,1.851,1.851,0,0,0,2.594,0L33.847,8.187l0,0,.044-.037a3.692,3.692,0,0,0,0-5.247,3.754,3.754,0,0,0-5.283,0l-.039.044,0,0L27.243,4.253,16.675,14.746a5.537,5.537,0,0,0,0,7.87,5.631,5.631,0,0,0,7.924,0l9.246-9.181,1.321-1.311,1.321,1.311-1.321,1.312-9.245,9.181Z" transform="translate(0 0)" fill="#0a9df2"/>
  </g>
</svg>
