<svg xmlns="http://www.w3.org/2000/svg" width="25.301" height="25.301" viewBox="0 0 25.301 25.301">
  <path id="icons8_gallery" d="M9.994,5A5,5,0,0,0,5,9.994v9.45l4.557-4.408a2.6,2.6,0,0,1,3.533,0l3.46,3.349,1.4-1.351a2.524,2.524,0,0,1,1.762-.714h.005a2.524,2.524,0,0,1,1.766.715l5.475,5.3c.009-.117.018-.233.018-.351V9.994A5,5,0,0,0,21.978,5ZM28.3,9.337V22.644A5.666,5.666,0,0,1,22.644,28.3H9.337a4.983,4.983,0,0,0,3.986,2h9.322A7.666,7.666,0,0,0,30.3,22.644V13.323A4.984,4.984,0,0,0,28.3,9.337Zm-8.323.99a1.665,1.665,0,1,1-1.665,1.665A1.664,1.664,0,0,1,19.981,10.327Zm-8.658,6a.545.545,0,0,0-.378.147l-5.933,5.74A5,5,0,0,0,8.07,26.586l7.043-6.813-3.412-3.3A.544.544,0,0,0,11.323,16.324Zm8.39,1.992a.539.539,0,0,0-.377.152l-8.791,8.5H21.978a4.992,4.992,0,0,0,4.319-2.5L20.09,18.469A.538.538,0,0,0,19.713,18.316Z" transform="translate(-5 -5)" fill="#0a9df2"/>
</svg>
