<svg id="icons8_Check_Circle" xmlns="http://www.w3.org/2000/svg" width="161.647" height="161.647" viewBox="0 0 161.647 161.647">
  <path id="Path_1081" data-name="Path 1081" d="M106.407,185.1a78.7,78.7,0,1,1,78.7-78.7A78.791,78.791,0,0,1,106.407,185.1Z" transform="translate(-25.584 -25.584)" fill="#bae0bd"/>
  <path id="Path_1082" data-name="Path 1082" d="M99.3,22.728A76.57,76.57,0,1,1,22.728,99.3,76.795,76.795,0,0,1,99.3,22.728m0-4.254A80.824,80.824,0,1,0,180.121,99.3,80.788,80.788,0,0,0,99.3,18.474Z" transform="translate(-18.474 -18.474)" fill="#5e9c76"/>
  <path id="Path_1083" data-name="Path 1083" d="M206.905,266.094l24.672,24.672,56.151-56.151" transform="translate(-163.516 -184.846)" fill="none" stroke="#fff" stroke-width="10"/>
</svg>
